<?xml version="1.0" standalone="no"?>
<!DOCTYPE svg PUBLIC "-//W3C//DTD SVG 20010904//EN"
 "http://www.w3.org/TR/2001/REC-SVG-20010904/DTD/svg10.dtd">
<svg version="1.0" xmlns="http://www.w3.org/2000/svg"
 width="32.000000pt" height="32.000000pt" viewBox="0 0 32.000000 32.000000"
 preserveAspectRatio="xMidYMid meet">

<g transform="translate(0.000000,32.000000) scale(0.100000,-0.100000)"
fill="#6A5ACDFF" stroke="none">
<path d="M165 295 c-23 -22 -25 -32 -25 -120 0 -88 1 -95 20 -95 19 0 20 7 20
100 0 93 1 100 20 100 19 0 20 -7 20 -103 0 -114 -10 -137 -62 -137 -44 0 -58
28 -58 118 0 77 -1 82 -21 82 -20 0 -21 -4 -17 -90 3 -82 5 -92 31 -117 38
-38 96 -38 135 0 25 26 27 33 30 132 4 100 3 105 -22 130 -31 31 -41 31 -71 0z"/>
</g>
</svg>
