<?xml version="1.0" standalone="no"?>
<!DOCTYPE svg PUBLIC "-//W3C//DTD SVG 20010904//EN"
 "http://www.w3.org/TR/2001/REC-SVG-20010904/DTD/svg10.dtd">
<svg version="1.0" xmlns="http://www.w3.org/2000/svg"
 width="32.000000pt" height="32.000000pt" viewBox="0 0 32.000000 32.000000"
 preserveAspectRatio="xMidYMid meet">

<g transform="translate(0.000000,32.000000) scale(0.100000,-0.100000)"
fill="#000000" stroke="none">
<path d="M95 306 c-101 -44 -125 -178 -46 -257 65 -65 157 -65 222 0 124 124
-15 327 -176 257z m105 -66 c11 -11 20 -29 20 -40 0 -26 -34 -60 -60 -60 -26
0 -60 34 -60 60 0 26 34 60 60 60 11 0 29 -9 40 -20z m44 -149 c12 -19 -36
-46 -84 -46 -48 0 -96 27 -84 46 3 5 41 9 84 9 43 0 81 -4 84 -9z"/>
</g>
</svg>
